<svg xmlns="http://www.w3.org/2000/svg" viewBox="0 0 32 32">
  <rect width="32" height="32" rx="6" fill="#050508"/>
  <path
    d="M3 27 L9 7 Q10 4 13 4 Q16 4 17 7 L19.5 14
       L22 7 Q23 4 26 4 Q29 4 30 7 L36 27
       L31 27 L26 13 L22.5 21 Q21 25 19 25
       L13 25 Q11 25 9.5 21 L6 13 L1 27 Z"
    fill="#ffffff"
    transform="scale(0.72) translate(3, 2)"
  />
  <rect x="7" y="17" width="18" height="1.8" rx="0.9"
    fill="#ffffff" opacity="0.9"
    transform="scale(0.72) translate(3, 2)"
  />
</svg>
